# Wavefront Obj file
# 
# verts: 40 uv-s: 104
mtllib Monitor Textured.mtl

g pCube3

v -7.950000 -4.950000 0.218081
v 7.950000 -4.950000 0.218081
v -7.950000 4.950000 0.218081
v 7.950000 4.950000 0.218081
v -7.950000 4.950000 0.018081
v 7.950000 4.950000 0.018081
v -7.950000 -4.950000 0.018081
v 7.950000 -4.950000 0.018081
# 8 positions

vt 0.235894 0.375830
vt 0.235894 0.005000
vt 0.005000 0.005000
vt 0.005000 0.375830
vt 0.642565 0.621837
vt 0.642565 0.992668
vt 0.637901 0.992668
vt 0.637901 0.621837
vt 0.242739 0.005000
vt 0.242739 0.375830
vt 0.473634 0.375830
vt 0.473634 0.005000
vt 0.613651 0.992668
vt 0.613651 0.621837
vt 0.608987 0.621837
vt 0.608987 0.992668
vt 0.480479 0.282744
vt 0.480479 0.278079
vt 0.711373 0.278079
vt 0.711373 0.282744
vt 0.711373 0.293988
vt 0.711373 0.289323
vt 0.480479 0.289323
vt 0.480479 0.293988
# 24 texture coordinates

vn 0.000000 0.000000 1.000000
vn 0.000000 0.000000 1.000000
vn 0.000000 0.000000 1.000000
vn 0.000000 0.000000 1.000000
vn 0.000000 1.000000 0.000000
vn 0.000000 1.000000 0.000000
vn 0.000000 1.000000 0.000000
vn 0.000000 1.000000 0.000000
vn 0.000000 0.000000 -1.000000
vn 0.000000 0.000000 -1.000000
vn 0.000000 0.000000 -1.000000
vn 0.000000 0.000000 -1.000000
vn 0.000000 -1.000000 0.000000
vn 0.000000 -1.000000 0.000000
vn 0.000000 -1.000000 0.000000
vn 0.000000 -1.000000 0.000000
vn 1.000000 0.000000 0.000000
vn 1.000000 0.000000 0.000000
vn 1.000000 0.000000 0.000000
vn 1.000000 0.000000 0.000000
vn -1.000000 0.000000 0.000000
vn -1.000000 0.000000 0.000000
vn -1.000000 0.000000 0.000000
vn -1.000000 0.000000 0.000000
# 24 normals

usemtl initialShadingGroup
s 1
f 1/1/1 2/2/2 4/3/3 3/4/4
s 2
f 3/5/5 4/6/6 6/7/7 5/8/8
s 3
f 5/9/9 6/10/10 8/11/11 7/12/12
s 4
f 7/13/13 8/14/14 2/15/15 1/16/16
s 5
f 2/17/17 8/18/18 6/19/19 4/20/20
s 6
f 7/21/21 1/22/22 3/23/23 5/24/24

g pCube2

v -8.000000 -5.000000 0.350000
v 8.000000 -5.000000 0.350000
v -8.000000 -4.000000 0.350000
v 8.000000 -4.000000 0.350000
v -8.000000 -4.000000 -0.150000
v 8.000000 -4.000000 -0.150000
v -8.000000 -5.000000 -0.150000
v 8.000000 -5.000000 -0.150000
# 8 positions

vt 0.571268 0.995000
vt 0.571268 0.621837
vt 0.547945 0.621837
vt 0.547945 0.995000
vt 0.660807 0.621837
vt 0.660807 0.995000
vt 0.649145 0.995000
vt 0.649145 0.621837
vt 0.578466 0.621837
vt 0.578466 0.995000
vt 0.601789 0.995000
vt 0.601789 0.621837
vt 0.631892 0.995000
vt 0.631892 0.621837
vt 0.620231 0.621837
vt 0.620231 0.995000
vt 0.480479 0.312229
vt 0.480479 0.300568
vt 0.503801 0.300568
vt 0.503801 0.312229
vt 0.503801 0.329899
vt 0.503801 0.318238
vt 0.480479 0.318238
vt 0.480479 0.329899
# 24 texture coordinates

vn 0.000000 0.000000 1.000000
vn 0.000000 0.000000 1.000000
vn 0.000000 0.000000 1.000000
vn 0.000000 0.000000 1.000000
vn 0.000000 1.000000 0.000000
vn 0.000000 1.000000 0.000000
vn 0.000000 1.000000 0.000000
vn 0.000000 1.000000 0.000000
vn 0.000000 0.000000 -1.000000
vn 0.000000 0.000000 -1.000000
vn 0.000000 0.000000 -1.000000
vn 0.000000 0.000000 -1.000000
vn 0.000000 -1.000000 0.000000
vn 0.000000 -1.000000 0.000000
vn 0.000000 -1.000000 0.000000
vn 0.000000 -1.000000 0.000000
vn 1.000000 0.000000 0.000000
vn 1.000000 0.000000 0.000000
vn 1.000000 0.000000 0.000000
vn 1.000000 0.000000 0.000000
vn -1.000000 0.000000 0.000000
vn -1.000000 0.000000 0.000000
vn -1.000000 0.000000 0.000000
vn -1.000000 0.000000 0.000000
# 24 normals

usemtl blinn1SG
s 7
f 9/25/25 10/26/26 12/27/27 11/28/28
s 8
f 11/29/29 12/30/30 14/31/31 13/32/32
s 9
f 13/33/33 14/34/34 16/35/35 15/36/36
s 10
f 15/37/37 16/38/38 10/39/39 9/40/40
s 11
f 10/41/41 16/42/42 14/43/43 12/44/44
s 12
f 15/45/45 9/46/46 11/47/47 13/48/48

g pCube1

v -8.000000 -5.000000 0.250000
v 8.000000 -5.000000 0.250000
v -8.000000 5.000000 0.250000
v 8.000000 5.000000 0.250000
v -8.000000 5.000000 -0.250000
v 8.000000 5.000000 -0.250000
v -8.000000 -5.000000 -0.250000
v 8.000000 -5.000000 -0.250000
v -7.955554 -4.950000 0.250000
v 7.955554 -4.950000 0.250000
v 7.955554 4.950000 0.250000
v -7.955554 4.950000 0.250000
v -7.955556 -4.950000 0.200000
v 7.955554 -4.950000 0.200000
v 7.955554 4.950000 0.200000
v -7.955556 4.950000 0.200000
v -7.777779 -4.750000 0.200000
v 7.777778 -4.750000 0.200000
v 7.777777 4.750000 0.200000
v -7.777779 4.750000 0.200000
v -7.777778 -4.750000 0.200000
v 7.777778 -4.750000 0.200000
v 7.777777 4.750000 0.200000
v -7.777778 4.750000 0.200000
# 24 positions

vt 0.226565 0.745289
vt 0.226565 0.382492
vt 0.005000 0.382492
vt 0.005000 0.745289
vt 0.514629 0.621837
vt 0.514629 0.995000
vt 0.502968 0.995000
vt 0.502968 0.621837
vt 0.233101 0.382492
vt 0.233101 0.755654
vt 0.466328 0.755654
vt 0.466328 0.382492
vt 0.541937 0.995000
vt 0.541937 0.621837
vt 0.530276 0.621837
vt 0.530276 0.995000
vt 0.480479 0.254401
vt 0.480479 0.242739
vt 0.713705 0.242739
vt 0.713705 0.254401
vt 0.713705 0.272071
vt 0.713705 0.260409
vt 0.480479 0.260409
vt 0.480479 0.272071
vt 0.472447 0.382492
vt 0.845610 0.382492
vt 0.844573 0.383658
vt 0.473484 0.383658
vt 0.845610 0.615718
vt 0.844573 0.614552
vt 0.472447 0.615718
vt 0.473484 0.614552
vt 0.521804 0.621837
vt 0.521804 0.992927
vt 0.520638 0.992927
vt 0.520638 0.621837
vt 0.491723 0.621843
vt 0.492890 0.852735
vt 0.494056 0.852729
vt 0.492890 0.621837
vt 0.472447 0.621837
vt 0.472447 0.992927
vt 0.473613 0.992927
vt 0.473613 0.621837
vt 0.482085 0.621837
vt 0.482085 0.852732
vt 0.483251 0.852732
vt 0.483251 0.621837
vt 0.480479 0.005000
vt 0.851569 0.005000
vt 0.847422 0.009665
vt 0.484625 0.009665
vt 0.851569 0.235894
vt 0.847422 0.231230
vt 0.480479 0.235894
vt 0.484625 0.231230
# 56 texture coordinates

vn 0.000000 0.000000 1.000000
vn 0.000000 0.000000 1.000000
vn 0.000000 0.000000 1.000000
vn 0.000000 0.000000 1.000000
vn 0.000000 1.000000 0.000000
vn 0.000000 1.000000 0.000000
vn 0.000000 1.000000 0.000000
vn 0.000000 1.000000 0.000000
vn 0.000000 0.000000 -1.000000
vn 0.000000 0.000000 -1.000000
vn 0.000000 0.000000 -1.000000
vn 0.000000 0.000000 -1.000000
vn 0.000000 -1.000000 0.000000
vn 0.000000 -1.000000 0.000000
vn 0.000000 -1.000000 0.000000
vn 0.000000 -1.000000 0.000000
vn 1.000000 0.000000 0.000000
vn 1.000000 0.000000 0.000000
vn 1.000000 0.000000 0.000000
vn 1.000000 0.000000 0.000000
vn -1.000000 0.000000 0.000000
vn -1.000000 0.000000 0.000000
vn -1.000000 0.000000 0.000000
vn -1.000000 0.000000 0.000000
vn 0.000000 0.000000 1.000000
vn 0.000000 0.000000 1.000000
vn 0.000000 0.000000 1.000000
vn 0.000000 0.000000 1.000000
vn 0.000000 0.000000 1.000000
vn 0.000000 0.000000 1.000000
vn 0.000000 0.000000 1.000000
vn 0.000000 0.000000 1.000000
vn 0.000000 1.000000 0.000000
vn 0.000000 1.000000 0.000000
vn 0.000000 1.000000 0.000000
vn 0.000000 1.000000 0.000000
vn -1.000000 -0.000000 0.000005
vn -1.000000 -0.000000 0.000005
vn -1.000000 -0.000000 0.000005
vn -1.000000 -0.000000 0.000005
vn 0.000000 -1.000000 0.000000
vn 0.000000 -1.000000 0.000000
vn 0.000000 -1.000000 0.000000
vn 0.000000 -1.000000 0.000000
vn 1.000000 0.000000 -0.000038
vn 1.000000 0.000000 -0.000038
vn 1.000000 0.000000 -0.000038
vn 1.000000 0.000000 -0.000038
vn 0.000000 0.000000 1.000000
vn 0.000000 0.000000 1.000000
vn 0.000000 0.000000 1.000000
vn 0.000000 0.000000 1.000000
vn 0.000000 0.000000 1.000000
vn 0.000000 0.000000 1.000000
vn 0.000000 0.000000 1.000000
vn 0.000000 0.000000 1.000000
# 56 normals

usemtl lambert4SG
s 13
f 37/49/49 38/50/50 39/51/51 40/52/52

usemtl blinn1SG
s 14
f 19/53/53 20/54/54 22/55/55 21/56/56
s 15
f 21/57/57 22/58/58 24/59/59 23/60/60
s 16
f 23/61/61 24/62/62 18/63/63 17/64/64
s 17
f 18/65/65 24/66/66 22/67/67 20/68/68
s 18
f 23/69/69 17/70/70 19/71/71 21/72/72

usemtl initialShadingGroup
s 19
f 17/73/73 18/74/74 26/75/75 25/76/76

usemtl blinn1SG
f 18/74/74 20/77/77 27/78/78 26/75/75
f 20/77/77 19/79/79 28/80/80 27/78/78
f 19/79/79 17/73/73 25/76/76 28/80/80

usemtl initialShadingGroup
s 20
f 25/81/81 26/82/82 30/83/83 29/84/84

usemtl blinn1SG
s 21
f 26/85/85 27/86/86 31/87/87 30/88/88
s 22
f 27/89/89 28/90/90 32/91/91 31/92/92
s 23
f 28/93/93 25/94/94 29/95/95 32/96/96

usemtl initialShadingGroup
s 24
f 29/97/97 30/98/98 34/99/99 33/100/100

usemtl lambert3SG
f 30/98/98 31/101/101 35/102/102 34/99/99
f 31/101/101 32/103/103 36/104/104 35/102/102
f 32/103/103 29/97/97 33/100/100 36/104/104

# 30 faces
